<?xml version="1.0" standalone="no"?>
<!DOCTYPE svg PUBLIC "-//W3C//DTD SVG 20010904//EN"
 "http://www.w3.org/TR/2001/REC-SVG-20010904/DTD/svg10.dtd">
<svg version="1.0" xmlns="http://www.w3.org/2000/svg"
 width="708.000000pt" height="1280.000000pt" viewBox="0 0 708.000000 1280.000000"
 preserveAspectRatio="xMidYMid meet">
<metadata>
Created by potrace 1.15, written by Peter Selinger 2001-2017
</metadata>
<g transform="translate(0.000000,1280.000000) scale(0.100000,-0.100000)"
fill="#000000" stroke="none">
<path d="M4295 11696 c-59 -27 -77 -46 -104 -106 -37 -81 -18 -179 42 -222 65
-47 188 -18 216 51 15 36 17 89 4 102 -17 17 -57 6 -61 -16 -14 -88 -81 -117
-129 -57 -19 23 -16 99 4 133 36 61 145 81 218 40 22 -12 52 -38 65 -58 22
-32 25 -47 24 -122 0 -114 -15 -142 -89 -170 -126 -47 -178 -90 -209 -173
l-17 -44 -82 -17 c-108 -22 -209 -73 -314 -158 l-86 -69 -31 18 c-21 12 -37
34 -51 72 -21 55 -41 73 -56 49 -26 -42 1 -115 60 -157 l39 -28 -54 -80 c-30
-43 -58 -80 -62 -82 -5 -1 -34 27 -66 63 -56 63 -78 76 -91 54 -14 -22 8 -64
66 -125 l61 -63 -31 -83 c-96 -260 -116 -533 -57 -763 14 -55 26 -100 26 -101
0 -2 -15 -7 -34 -14 -36 -11 -73 -46 -76 -70 -7 -51 9 -52 61 -5 57 51 71 47
120 -37 52 -90 171 -209 259 -261 154 -89 457 -143 592 -103 74 21 85 20 104
-9 15 -24 15 -29 0 -68 -22 -57 -20 -67 8 -67 54 0 85 91 51 150 -22 38 -19
44 38 72 241 118 446 437 483 751 l6 57 39 0 c70 0 129 40 129 87 0 32 -32 30
-65 -3 -19 -19 -34 -24 -58 -22 l-32 3 -8 115 c-4 63 -5 120 -3 126 2 6 22 14
44 18 50 8 102 54 102 90 0 42 -26 42 -70 2 -41 -37 -80 -46 -97 -23 -6 6 -16
35 -23 62 -23 88 -86 221 -136 290 -27 37 -54 75 -61 84 -9 12 -8 28 3 71 18
66 13 128 -17 211 -19 52 -20 65 -10 100 17 56 80 115 169 157 65 31 87 36
147 36 110 1 171 -44 169 -126 -3 -84 -111 -136 -194 -93 -38 20 -39 50 -3 87
25 26 26 29 10 45 -24 24 -64 3 -83 -44 -44 -105 81 -211 203 -173 159 51 203
212 86 322 -80 76 -227 85 -361 21 -66 -31 -164 -121 -187 -171 -10 -20 -19
-39 -21 -41 -2 -2 -19 8 -39 23 -39 30 -105 56 -141 56 -13 0 -24 1 -24 3 0 1
9 26 20 55 12 32 20 76 20 115 0 188 -189 311 -355 233z"/>
<path d="M2590 8967 c-49 -16 -133 -103 -148 -153 -18 -63 -15 -155 8 -209 11
-26 20 -48 20 -50 0 -1 -22 -5 -49 -9 -32 -4 -68 -19 -102 -42 -28 -19 -53
-33 -54 -32 -1 2 -10 20 -20 40 -23 51 -122 140 -188 171 -80 38 -174 53 -240
38 -109 -24 -177 -92 -185 -186 -8 -93 55 -169 161 -195 120 -31 234 74 192
177 -7 17 -22 36 -33 42 -53 29 -80 -5 -38 -48 14 -15 26 -34 26 -42 0 -27
-38 -52 -87 -56 -39 -4 -55 0 -83 19 -94 64 -69 176 45 208 122 34 315 -50
373 -163 l25 -48 -27 -87 c-30 -99 -32 -138 -11 -207 l14 -49 -53 -70 c-68
-89 -100 -153 -145 -286 -33 -96 -38 -105 -63 -108 -19 -2 -38 7 -66 32 -50
45 -72 47 -72 5 0 -41 49 -87 102 -95 22 -4 42 -12 44 -18 2 -6 0 -63 -4 -126
l-7 -115 -33 -3 c-26 -3 -39 3 -61 27 -19 20 -35 29 -45 25 -25 -10 -19 -48
14 -79 23 -22 41 -29 85 -33 50 -4 55 -7 55 -29 0 -40 30 -174 57 -253 74
-220 232 -417 413 -517 36 -20 67 -38 69 -40 3 -2 -3 -19 -12 -38 -34 -71 -7
-155 49 -155 28 0 31 21 9 60 -20 35 -18 64 5 85 19 17 23 17 96 0 59 -14 96
-16 167 -11 328 25 544 144 686 378 47 77 65 82 119 34 53 -48 69 -47 62 4 -3
24 -40 59 -77 72 -38 14 -38 16 -17 83 41 131 55 323 34 468 -17 118 -29 166
-73 294 l-41 123 56 52 c56 52 84 99 74 125 -10 26 -36 12 -93 -52 -32 -36
-61 -65 -64 -65 -5 0 -70 92 -111 156 -5 8 5 20 27 32 55 33 91 122 65 162
-12 19 -43 2 -48 -26 -8 -40 -33 -80 -61 -97 l-29 -17 -75 63 c-100 83 -196
133 -309 161 l-93 24 -23 48 c-41 84 -89 123 -200 164 -77 28 -93 54 -100 157
-4 60 -1 79 18 118 31 63 85 99 153 99 100 1 157 -49 157 -137 0 -106 -118
-119 -139 -15 -5 26 -12 34 -34 36 -35 4 -50 -30 -36 -82 20 -72 103 -116 178
-96 46 12 96 64 106 110 17 79 -23 175 -93 224 -37 26 -53 31 -115 33 -40 1
-88 -3 -107 -10z"/>
<path d="M4294 6571 c-93 -42 -148 -167 -113 -258 15 -41 58 -82 98 -93 47
-13 112 5 146 40 47 50 51 130 6 145 -29 9 -41 -1 -41 -34 0 -69 -74 -105
-118 -58 -34 36 -31 115 6 155 33 36 100 56 151 47 124 -22 183 -157 132 -300
-17 -49 -19 -50 -89 -76 -40 -15 -88 -39 -108 -54 -43 -33 -94 -101 -94 -126
0 -23 -18 -32 -110 -54 -112 -26 -221 -85 -325 -175 -26 -22 -54 -40 -64 -40
-27 0 -70 48 -77 86 -12 62 -64 74 -64 14 0 -45 34 -105 74 -130 l36 -21 -57
-82 c-31 -45 -58 -84 -59 -86 -2 -2 -31 26 -65 63 -61 65 -85 79 -95 53 -10
-26 18 -73 73 -125 l57 -52 -28 -78 c-101 -277 -122 -546 -61 -776 14 -54 24
-100 23 -101 -2 -1 -17 -7 -35 -14 -35 -14 -70 -48 -73 -71 -7 -51 14 -53 60
-5 51 53 74 46 124 -39 23 -38 73 -101 112 -140 111 -111 224 -170 396 -206
153 -32 247 -36 339 -15 l80 18 22 -21 c21 -22 21 -23 4 -71 -22 -64 -22 -71
8 -71 51 0 82 94 50 150 -8 14 -14 30 -15 36 0 6 32 28 72 50 90 49 219 170
289 271 87 126 153 304 175 471 l7 52 39 0 c63 0 128 44 128 87 0 36 -28 40
-56 10 -26 -29 -65 -43 -89 -33 -11 4 -15 21 -15 63 0 32 -3 88 -7 126 l-6 67
29 0 c31 0 90 32 111 59 7 9 13 28 13 44 0 38 -24 35 -72 -9 -28 -25 -47 -34
-66 -32 -25 3 -30 12 -63 108 -45 133 -77 197 -144 285 l-53 70 14 55 c20 77
18 111 -12 197 -24 68 -25 80 -14 117 16 55 86 120 169 159 56 27 78 32 146
32 94 0 135 -19 161 -74 15 -31 15 -40 3 -75 -20 -56 -58 -81 -124 -80 -38 0
-60 6 -75 19 -27 24 -25 43 6 76 49 51 2 82 -52 36 -54 -47 -28 -154 46 -192
38 -20 133 -19 173 1 101 51 141 144 103 236 -56 132 -237 174 -413 93 -62
-28 -167 -123 -194 -177 l-19 -37 -50 34 c-29 19 -70 37 -95 41 -25 3 -47 10
-50 14 -3 4 4 28 15 51 22 50 26 141 8 201 -16 52 -77 121 -133 147 -58 27
-153 28 -211 2z"/>
<path d="M2627 3849 c-78 -19 -146 -74 -178 -144 -26 -56 -25 -166 2 -224 22
-51 19 -56 -47 -66 -23 -3 -61 -19 -83 -35 -22 -17 -45 -30 -50 -30 -5 0 -14
13 -20 29 -21 50 -121 140 -200 179 -68 34 -80 36 -165 37 -116 0 -174 -25
-223 -99 -89 -131 9 -286 179 -286 91 0 151 57 151 143 0 45 -34 87 -70 87
-35 0 -40 -27 -9 -59 14 -15 26 -35 26 -44 0 -48 -125 -69 -178 -31 -15 12
-33 38 -41 60 -21 59 3 108 65 136 128 56 360 -38 409 -166 16 -42 16 -46 -9
-125 -30 -93 -32 -138 -12 -206 l15 -47 -50 -65 c-64 -83 -114 -183 -153 -303
-28 -86 -34 -95 -58 -98 -19 -2 -38 7 -66 32 -49 45 -72 47 -72 7 0 -39 57
-89 110 -97 l40 -7 -6 -116 c-3 -64 -7 -122 -10 -128 -6 -23 -53 -14 -87 17
-45 39 -67 39 -67 1 0 -20 9 -37 31 -55 31 -27 40 -29 99 -30 l35 -1 11 -76
c27 -172 85 -325 175 -454 69 -100 197 -220 287 -269 40 -22 72 -44 72 -50 0
-6 -7 -20 -15 -30 -24 -32 -19 -99 10 -130 25 -27 65 -36 65 -14 0 7 -7 32
-16 56 -14 36 -15 46 -4 67 16 30 32 31 124 8 61 -14 83 -15 175 -5 252 28
394 86 527 214 47 45 101 109 121 142 64 107 75 111 134 50 35 -36 54 -42 62
-21 13 35 -52 107 -97 107 -20 0 -21 -2 10 115 60 231 39 489 -62 768 l-28 78
58 56 c31 30 62 66 67 80 11 28 3 63 -13 63 -6 0 -39 -30 -74 -67 -72 -78 -61
-80 -137 29 l-47 66 33 21 c58 36 98 136 66 168 -19 19 -38 3 -50 -40 -11 -42
-57 -97 -82 -97 -8 0 -47 27 -86 60 -87 72 -207 135 -299 155 -94 21 -108 29
-115 62 -3 16 -26 52 -51 80 -44 49 -65 60 -203 114 -47 18 -69 178 -34 254
22 48 44 69 94 90 65 27 143 12 189 -37 53 -57 27 -178 -38 -178 -30 0 -74 41
-74 69 0 54 -37 69 -65 27 -33 -50 21 -145 91 -162 14 -4 45 -4 70 -1 125 14
165 178 72 292 -53 64 -148 95 -231 74z"/>
</g>
</svg>
